<svg width="53" height="11" viewBox="0 0 53 11" fill="none" xmlns="http://www.w3.org/2000/svg">
<path d="M6.57267 2.90909C6.51727 2.44129 6.2926 2.07812 5.89866 1.8196C5.50472 1.56108 5.02153 1.43182 4.44909 1.43182C4.03053 1.43182 3.66428 1.49953 3.35036 1.63494C3.03952 1.77036 2.79639 1.95656 2.62096 2.19354C2.44861 2.43052 2.36244 2.69981 2.36244 3.00142C2.36244 3.25379 2.42245 3.47076 2.54248 3.65234C2.66559 3.83085 2.82255 3.98011 3.01336 4.10014C3.20418 4.21709 3.40422 4.31404 3.6135 4.39098C3.82278 4.46484 4.01514 4.52486 4.19056 4.57102L5.15079 4.82955C5.397 4.89418 5.67091 4.98343 5.97252 5.0973C6.27721 5.21117 6.56805 5.3666 6.84504 5.56357C7.1251 5.75746 7.35593 6.00675 7.53751 6.31143C7.71909 6.61612 7.80988 6.99006 7.80988 7.43324C7.80988 7.94413 7.676 8.40578 7.40825 8.81818C7.14357 9.23059 6.75579 9.55836 6.2449 9.80149C5.73708 10.0446 5.12001 10.1662 4.39369 10.1662C3.7166 10.1662 3.13031 10.0569 2.63481 9.83842C2.14239 9.61991 1.7546 9.31522 1.47146 8.92436C1.19139 8.5335 1.03289 8.07955 0.995961 7.5625H2.17778C2.20856 7.91951 2.32858 8.21496 2.53786 8.44886C2.75022 8.67969 3.01798 8.85204 3.34113 8.96591C3.66736 9.0767 4.01821 9.1321 4.39369 9.1321C4.83071 9.1321 5.22312 9.06132 5.57089 8.91974C5.91866 8.77509 6.19411 8.57505 6.39724 8.3196C6.60036 8.06108 6.70193 7.75947 6.70193 7.41477C6.70193 7.10085 6.61421 6.84541 6.43879 6.64844C6.26336 6.45147 6.03254 6.29143 5.74632 6.16832C5.46009 6.04522 5.15079 5.9375 4.8184 5.84517L3.65505 5.51278C2.91642 5.30043 2.33166 4.99728 1.90079 4.60334C1.46992 4.2094 1.25448 3.69389 1.25448 3.05682C1.25448 2.52746 1.39759 2.06581 1.68382 1.67188C1.97311 1.27486 2.3609 0.967092 2.84717 0.748579C3.33651 0.526988 3.8828 0.416193 4.48602 0.416193C5.09539 0.416193 5.63706 0.525449 6.11102 0.743963C6.58498 0.959398 6.96045 1.25485 7.23744 1.63033C7.5175 2.0058 7.66523 2.43205 7.68062 2.90909H6.57267ZM12.5175 10.1477C11.8343 10.1477 11.2449 9.99692 10.7494 9.69531C10.257 9.39062 9.87691 8.96591 9.60915 8.42116C9.34448 7.87334 9.21214 7.23627 9.21214 6.50994C9.21214 5.78362 9.34448 5.14347 9.60915 4.58949C9.87691 4.03243 10.2493 3.59848 10.7263 3.28764C11.2065 2.97372 11.7666 2.81676 12.4067 2.81676C12.7761 2.81676 13.1408 2.87831 13.5008 3.00142C13.8609 3.12453 14.1887 3.32457 14.4842 3.60156C14.7796 3.87547 15.015 4.23864 15.1905 4.69105C15.3659 5.14347 15.4536 5.70052 15.4536 6.36222V6.82386H9.9877V5.8821H14.3457C14.3457 5.48201 14.2656 5.125 14.1056 4.81108C13.9486 4.49716 13.724 4.24941 13.4316 4.06783C13.1423 3.88625 12.8007 3.79545 12.4067 3.79545C11.9728 3.79545 11.5973 3.90317 11.2803 4.11861C10.9664 4.33097 10.7248 4.60795 10.5555 4.94957C10.3863 5.29119 10.3016 5.65743 10.3016 6.0483V6.67614C10.3016 7.21165 10.394 7.6656 10.5786 8.038C10.7664 8.40732 11.0264 8.68892 11.3588 8.88281C11.6912 9.07363 12.0774 9.16903 12.5175 9.16903C12.8038 9.16903 13.0623 9.12902 13.2931 9.04901C13.527 8.96591 13.7286 8.8428 13.8979 8.67969C14.0671 8.51349 14.1979 8.30729 14.2903 8.06108L15.3428 8.35653C15.232 8.71354 15.0458 9.02746 14.7842 9.2983C14.5226 9.56605 14.1995 9.77533 13.8148 9.92614C13.4301 10.0739 12.9976 10.1477 12.5175 10.1477ZM19.1976 10.1662C18.7482 10.1662 18.3405 10.0816 17.9742 9.91229C17.608 9.73994 17.3171 9.49219 17.1017 9.16903C16.8863 8.8428 16.7785 8.44886 16.7785 7.98722C16.7785 7.58097 16.8586 7.25166 17.0186 6.99929C17.1786 6.74384 17.3925 6.5438 17.6603 6.39915C17.928 6.2545 18.2235 6.14678 18.5467 6.07599C18.8729 6.00213 19.2007 5.94366 19.53 5.90057C19.9608 5.84517 20.3101 5.80362 20.5779 5.77592C20.8487 5.74515 21.0457 5.69437 21.1688 5.62358C21.295 5.55279 21.3581 5.42969 21.3581 5.25426V5.21733C21.3581 4.76184 21.2334 4.40791 20.9842 4.15554C20.7379 3.90317 20.364 3.77699 19.8623 3.77699C19.3422 3.77699 18.9344 3.89086 18.639 4.11861C18.3435 4.34635 18.1358 4.58949 18.0158 4.84801L16.9817 4.47869C17.1663 4.04782 17.4125 3.71236 17.7203 3.4723C18.0311 3.22917 18.3697 3.0599 18.7359 2.96449C19.1052 2.866 19.4684 2.81676 19.8254 2.81676C20.0532 2.81676 20.3148 2.84446 20.6102 2.89986C20.9088 2.95218 21.1965 3.06143 21.4735 3.22763C21.7536 3.39382 21.9859 3.64465 22.1706 3.98011C22.3552 4.31558 22.4476 4.76491 22.4476 5.32812V10H21.3581V9.03977H21.3027C21.2288 9.19366 21.1057 9.35831 20.9334 9.53374C20.761 9.70916 20.5317 9.85843 20.2455 9.98153C19.9593 10.1046 19.61 10.1662 19.1976 10.1662ZM19.3638 9.1875C19.7946 9.1875 20.1578 9.10286 20.4533 8.93359C20.7518 8.76432 20.9765 8.54581 21.1273 8.27805C21.2811 8.0103 21.3581 7.72869 21.3581 7.43324V6.43608C21.3119 6.49148 21.2104 6.54226 21.0534 6.58842C20.8995 6.63151 20.721 6.66998 20.5179 6.70383C20.3178 6.73461 20.1224 6.76231 19.9316 6.78693C19.7439 6.80848 19.5915 6.82694 19.4746 6.84233C19.1914 6.87926 18.9267 6.93928 18.6805 7.02237C18.4374 7.10239 18.2404 7.22396 18.0896 7.38707C17.9419 7.54711 17.868 7.76562 17.868 8.04261C17.868 8.42116 18.0081 8.70739 18.2881 8.90128C18.5713 9.09209 18.9298 9.1875 19.3638 9.1875ZM24.4361 10V2.90909H25.4887V3.98011H25.5625C25.6918 3.62926 25.9257 3.34458 26.2642 3.12606C26.6028 2.90755 26.9844 2.79829 27.4091 2.79829C27.4892 2.79829 27.5892 2.79983 27.7092 2.80291C27.8292 2.80599 27.92 2.81061 27.9816 2.81676V3.92472C27.9446 3.91548 27.86 3.90163 27.7277 3.88317C27.5984 3.86162 27.4615 3.85085 27.3168 3.85085C26.9721 3.85085 26.6643 3.92318 26.3935 4.06783C26.1258 4.2094 25.9134 4.40637 25.7564 4.65874C25.6026 4.90803 25.5256 5.19271 25.5256 5.51278V10H24.4361ZM31.9379 10.1477C31.2731 10.1477 30.7007 9.99077 30.2206 9.67685C29.7405 9.36293 29.3711 8.93052 29.1126 8.37962C28.8541 7.82872 28.7248 7.19934 28.7248 6.49148C28.7248 5.77131 28.8572 5.13577 29.1218 4.58487C29.3896 4.03089 29.762 3.59848 30.239 3.28764C30.7191 2.97372 31.2793 2.81676 31.9194 2.81676C32.418 2.81676 32.8674 2.90909 33.2674 3.09375C33.6675 3.27841 33.9953 3.53693 34.2508 3.86932C34.5062 4.2017 34.6647 4.58949 34.7263 5.03267H33.6368C33.5537 4.70952 33.369 4.4233 33.0828 4.17401C32.7996 3.92164 32.418 3.79545 31.9379 3.79545C31.5132 3.79545 31.1408 3.90625 30.8207 4.12784C30.5037 4.34635 30.256 4.65566 30.0775 5.05575C29.902 5.45277 29.8143 5.91903 29.8143 6.45455C29.8143 7.00237 29.9005 7.4794 30.0728 7.88565C30.2483 8.2919 30.4945 8.60736 30.8115 8.83203C31.1316 9.0567 31.507 9.16903 31.9379 9.16903C32.221 9.16903 32.478 9.11979 32.7089 9.02131C32.9397 8.92282 33.1351 8.78125 33.2951 8.59659C33.4552 8.41193 33.5691 8.19034 33.6368 7.93182H34.7263C34.6647 8.35038 34.5124 8.72739 34.2692 9.06286C34.0292 9.39524 33.7106 9.65992 33.3136 9.85689C32.9197 10.0508 32.4611 10.1477 31.9379 10.1477ZM37.4084 5.73438V10H36.3189V0.545454H37.4084V4.01705H37.5008C37.6669 3.6508 37.9162 3.35997 38.2486 3.14453C38.5841 2.92602 39.0303 2.81676 39.5874 2.81676C40.0706 2.81676 40.4938 2.91371 40.8569 3.1076C41.2201 3.29841 41.5017 3.59233 41.7017 3.98935C41.9049 4.38329 42.0064 4.88494 42.0064 5.49432V10H40.9169V5.56818C40.9169 5.00497 40.7708 4.56948 40.4784 4.26172C40.1891 3.95088 39.7874 3.79545 39.2735 3.79545C38.9165 3.79545 38.5964 3.87086 38.3133 4.02166C38.0332 4.17247 37.8116 4.39252 37.6485 4.68182C37.4884 4.97112 37.4084 5.32197 37.4084 5.73438ZM44.7936 10.0739C44.5659 10.0739 44.3705 9.99231 44.2073 9.82919C44.0442 9.66607 43.9627 9.47064 43.9627 9.2429C43.9627 9.01515 44.0442 8.81972 44.2073 8.65661C44.3705 8.49349 44.5659 8.41193 44.7936 8.41193C45.0214 8.41193 45.2168 8.49349 45.3799 8.65661C45.543 8.81972 45.6246 9.01515 45.6246 9.2429C45.6246 9.3937 45.5861 9.5322 45.5092 9.65838C45.4353 9.78456 45.3353 9.88613 45.2091 9.96307C45.086 10.0369 44.9475 10.0739 44.7936 10.0739ZM48.3737 10.0739C48.146 10.0739 47.9505 9.99231 47.7874 9.82919C47.6243 9.66607 47.5427 9.47064 47.5427 9.2429C47.5427 9.01515 47.6243 8.81972 47.7874 8.65661C47.9505 8.49349 48.146 8.41193 48.3737 8.41193C48.6015 8.41193 48.7969 8.49349 48.96 8.65661C49.1231 8.81972 49.2047 9.01515 49.2047 9.2429C49.2047 9.3937 49.1662 9.5322 49.0893 9.65838C49.0154 9.78456 48.9154 9.88613 48.7892 9.96307C48.6661 10.0369 48.5276 10.0739 48.3737 10.0739ZM51.9538 10.0739C51.726 10.0739 51.5306 9.99231 51.3675 9.82919C51.2044 9.66607 51.1228 9.47064 51.1228 9.2429C51.1228 9.01515 51.2044 8.81972 51.3675 8.65661C51.5306 8.49349 51.726 8.41193 51.9538 8.41193C52.1815 8.41193 52.377 8.49349 52.5401 8.65661C52.7032 8.81972 52.7848 9.01515 52.7848 9.2429C52.7848 9.3937 52.7463 9.5322 52.6693 9.65838C52.5955 9.78456 52.4955 9.88613 52.3693 9.96307C52.2462 10.0369 52.1077 10.0739 51.9538 10.0739Z" fill="#8E8E8E"/>
</svg>
