<svg width="18" height="20" viewBox="0 0 18 20" fill="none" xmlns="http://www.w3.org/2000/svg">
<path d="M8.6483 1.25C9.46747 1.25 10.2531 1.57924 10.8323 2.16529C11.4116 2.75134 11.737 3.5462 11.737 4.375V5H5.55962V4.375C5.55962 3.5462 5.88503 2.75134 6.46427 2.16529C7.04351 1.57924 7.82913 1.25 8.6483 1.25ZM12.9724 5V4.375C12.9724 3.21468 12.5169 2.10188 11.7059 1.28141C10.895 0.460936 9.79513 0 8.6483 0C7.50146 0 6.4016 0.460936 5.59066 1.28141C4.77973 2.10188 4.32415 3.21468 4.32415 4.375V5H0V17.5C0 18.163 0.260331 18.7989 0.723722 19.2678C1.18711 19.7366 1.81561 20 2.47094 20H14.8257C15.481 20 16.1095 19.7366 16.5729 19.2678C17.0363 18.7989 17.2966 18.163 17.2966 17.5V5H12.9724ZM1.23547 6.25H16.0611V17.5C16.0611 17.8315 15.931 18.1495 15.6993 18.3839C15.4676 18.6183 15.1533 18.75 14.8257 18.75H2.47094C2.14327 18.75 1.82903 18.6183 1.59733 18.3839C1.36564 18.1495 1.23547 17.8315 1.23547 17.5V6.25Z" fill="#80233A"/>
</svg>
